<svg width="64" height="64" viewBox="0 0 64 64" fill="none" xmlns="http://www.w3.org/2000/svg">
<g id="SVG">
<path id="Vector" d="M12.8 12.7998H28.8V12.7998V28.7998V28.7998H12.8V28.7998V12.7998V12.7998V12.7998" stroke="#0646D0" stroke-width="0.96" stroke-linejoin="round"/>
<path id="Vector_2" d="M35.2 12.7998H51.2V12.7998V28.7998V28.7998H35.2V28.7998V12.7998V12.7998V12.7998" stroke="#0646D0" stroke-width="0.96" stroke-linejoin="round"/>
<path id="Vector_3" d="M12.8 35.2002H28.8V35.2002V51.2002V51.2002H12.8V51.2002V35.2002V35.2002V35.2002" stroke="#0646D0" stroke-width="0.96" stroke-linejoin="round"/>
<path id="Vector_4" d="M35.2 35.2002H51.2V35.2002V51.2002V51.2002H35.2V51.2002V35.2002V35.2002V35.2002" stroke="#0646D0" stroke-width="0.96" stroke-linejoin="round"/>
<path id="Vector_5" d="M28.8 20.7998H35.2" stroke="#D54561" stroke-width="0.96" stroke-linejoin="round"/>
<path id="Vector_6" d="M28.8 43.2002H35.2" stroke="#D54561" stroke-width="0.96" stroke-linejoin="round"/>
<path id="Vector_7" d="M20.8 28.7998V35.1998" stroke="#D54561" stroke-width="0.96" stroke-linejoin="round"/>
<path id="Vector_8" d="M43.2 28.7998V35.1998" stroke="#D54561" stroke-width="0.96" stroke-linejoin="round"/>
<g id="Vector_9">
<path d="M27.2 27.2002H36.8V36.8002H27.2V27.2002Z" fill="#0E5FA8" fill-opacity="0.15"/>
<path d="M27.2 27.2002H36.8V27.2002V36.8002V36.8002H27.2V36.8002V27.2002V27.2002V27.2002" stroke="#D54561" stroke-width="0.96" stroke-linejoin="round"/>
</g>
</g>
</svg>
