<svg width="64" height="64" viewBox="0 0 64 64" fill="none" xmlns="http://www.w3.org/2000/svg">
<g id="SVG">
<g id="Vector">
<path d="M25.6 32.0001C25.6 35.5324 28.4677 38.4001 32 38.4001C35.5322 38.4001 38.4 35.5324 38.4 32.0001C38.4 28.4678 35.5322 25.6001 32 25.6001C28.4677 25.6001 25.6 28.4678 25.6 32.0001Z" fill="#0E5FA8" fill-opacity="0.15"/>
<path d="M25.6 32.0001C25.6 35.5324 28.4677 38.4001 32 38.4001C35.5322 38.4001 38.4 35.5324 38.4 32.0001C38.4 28.4678 35.5322 25.6001 32 25.6001C28.4677 25.6001 25.6 28.4678 25.6 32.0001V32.0001" stroke="#0B1328" stroke-width="0.96" stroke-linecap="round"/>
</g>
<path id="Vector_2" d="M16 32C16 40.8306 23.1694 48 32 48C40.8306 48 48 40.8306 48 32C48 23.1694 40.8306 16 32 16C23.1694 16 16 23.1694 16 32V32" stroke="#0646D0" stroke-width="0.96" stroke-linecap="round" stroke-dasharray="2.56 2.56"/>
<path id="Vector_3" d="M32 15.9999V6.3999" stroke="#D54561" stroke-width="0.96" stroke-linecap="round"/>
<path id="Vector_4" d="M32 48V57.6" stroke="#D54561" stroke-width="0.96" stroke-linecap="round"/>
<path id="Vector_5" d="M16 32H6.40002" stroke="#D54561" stroke-width="0.96" stroke-linecap="round"/>
<path id="Vector_6" d="M48 32H57.6" stroke="#D54561" stroke-width="0.96" stroke-linecap="round"/>
<path id="Vector_7" d="M20.8 20.7998L12.8 12.7998" stroke="#D54561" stroke-width="0.96" stroke-linecap="round"/>
<path id="Vector_8" d="M43.2 43.2002L51.2 51.2002" stroke="#D54561" stroke-width="0.96" stroke-linecap="round"/>
<path id="Vector_9" d="M20.8 43.2002L12.8 51.2002" stroke="#D54561" stroke-width="0.96" stroke-linecap="round"/>
<path id="Vector_10" d="M43.2 20.7998L51.2 12.7998" stroke="#D54561" stroke-width="0.96" stroke-linecap="round"/>
<g id="Vector_11">
<path d="M30.72 6.40012C30.72 7.10657 31.2935 7.68012 32 7.68012C32.7064 7.68012 33.28 7.10657 33.28 6.40012C33.28 5.69367 32.7064 5.12012 32 5.12012C31.2935 5.12012 30.72 5.69367 30.72 6.40012Z" fill="#D54561"/>
<path d="M30.72 6.40012C30.72 7.10657 31.2935 7.68012 32 7.68012C32.7064 7.68012 33.28 7.10657 33.28 6.40012C33.28 5.69367 32.7064 5.12012 32 5.12012C31.2935 5.12012 30.72 5.69367 30.72 6.40012V6.40012" stroke="#D54561" stroke-width="0.96" stroke-linecap="round"/>
</g>
<g id="Vector_12">
<path d="M30.72 57.5998C30.72 58.3063 31.2935 58.8798 32 58.8798C32.7064 58.8798 33.28 58.3063 33.28 57.5998C33.28 56.8934 32.7064 56.3198 32 56.3198C31.2935 56.3198 30.72 56.8934 30.72 57.5998Z" fill="#D54561"/>
<path d="M30.72 57.5998C30.72 58.3063 31.2935 58.8798 32 58.8798C32.7064 58.8798 33.28 58.3063 33.28 57.5998C33.28 56.8934 32.7064 56.3198 32 56.3198C31.2935 56.3198 30.72 56.8934 30.72 57.5998V57.5998" stroke="#D54561" stroke-width="0.96" stroke-linecap="round"/>
</g>
<g id="Vector_13">
<path d="M5.12 32.0002C5.12 32.7067 5.69354 33.2802 6.4 33.2802C7.10645 33.2802 7.68 32.7067 7.68 32.0002C7.68 31.2938 7.10645 30.7202 6.4 30.7202C5.69354 30.7202 5.12 31.2938 5.12 32.0002Z" fill="#D54561"/>
<path d="M5.12 32.0002C5.12 32.7067 5.69354 33.2802 6.4 33.2802C7.10645 33.2802 7.68 32.7067 7.68 32.0002C7.68 31.2938 7.10645 30.7202 6.4 30.7202C5.69354 30.7202 5.12 31.2938 5.12 32.0002V32.0002" stroke="#D54561" stroke-width="0.96" stroke-linecap="round"/>
</g>
<g id="Vector_14">
<path d="M56.3199 32.0002C56.3199 32.7067 56.8935 33.2802 57.5999 33.2802C58.3064 33.2802 58.8799 32.7067 58.8799 32.0002C58.8799 31.2938 58.3064 30.7202 57.5999 30.7202C56.8935 30.7202 56.3199 31.2938 56.3199 32.0002Z" fill="#D54561"/>
<path d="M56.3199 32.0002C56.3199 32.7067 56.8935 33.2802 57.5999 33.2802C58.3064 33.2802 58.8799 32.7067 58.8799 32.0002C58.8799 31.2938 58.3064 30.7202 57.5999 30.7202C56.8935 30.7202 56.3199 31.2938 56.3199 32.0002V32.0002" stroke="#D54561" stroke-width="0.96" stroke-linecap="round"/>
</g>
<g id="Vector_15">
<path d="M11.52 12.8C11.52 13.5065 12.0936 14.08 12.8 14.08C13.5065 14.08 14.08 13.5065 14.08 12.8C14.08 12.0936 13.5065 11.52 12.8 11.52C12.0936 11.52 11.52 12.0936 11.52 12.8Z" fill="#D54561"/>
<path d="M11.52 12.8C11.52 13.5065 12.0936 14.08 12.8 14.08C13.5065 14.08 14.08 13.5065 14.08 12.8C14.08 12.0936 13.5065 11.52 12.8 11.52C12.0936 11.52 11.52 12.0936 11.52 12.8V12.8" stroke="#D54561" stroke-width="0.96" stroke-linecap="round"/>
</g>
<g id="Vector_16">
<path d="M49.92 51.1999C49.92 51.9064 50.4936 52.4799 51.2 52.4799C51.9065 52.4799 52.48 51.9064 52.48 51.1999C52.48 50.4935 51.9065 49.9199 51.2 49.9199C50.4936 49.9199 49.92 50.4935 49.92 51.1999Z" fill="#D54561"/>
<path d="M49.92 51.1999C49.92 51.9064 50.4936 52.4799 51.2 52.4799C51.9065 52.4799 52.48 51.9064 52.48 51.1999C52.48 50.4935 51.9065 49.9199 51.2 49.9199C50.4936 49.9199 49.92 50.4935 49.92 51.1999V51.1999" stroke="#D54561" stroke-width="0.96" stroke-linecap="round"/>
</g>
<g id="Vector_17">
<path d="M11.52 51.1999C11.52 51.9064 12.0936 52.4799 12.8 52.4799C13.5065 52.4799 14.08 51.9064 14.08 51.1999C14.08 50.4935 13.5065 49.9199 12.8 49.9199C12.0936 49.9199 11.52 50.4935 11.52 51.1999Z" fill="#D54561"/>
<path d="M11.52 51.1999C11.52 51.9064 12.0936 52.4799 12.8 52.4799C13.5065 52.4799 14.08 51.9064 14.08 51.1999C14.08 50.4935 13.5065 49.9199 12.8 49.9199C12.0936 49.9199 11.52 50.4935 11.52 51.1999V51.1999" stroke="#D54561" stroke-width="0.96" stroke-linecap="round"/>
</g>
<g id="Vector_18">
<path d="M49.92 12.8C49.92 13.5065 50.4936 14.08 51.2 14.08C51.9065 14.08 52.48 13.5065 52.48 12.8C52.48 12.0936 51.9065 11.52 51.2 11.52C50.4936 11.52 49.92 12.0936 49.92 12.8Z" fill="#D54561"/>
<path d="M49.92 12.8C49.92 13.5065 50.4936 14.08 51.2 14.08C51.9065 14.08 52.48 13.5065 52.48 12.8C52.48 12.0936 51.9065 11.52 51.2 11.52C50.4936 11.52 49.92 12.0936 49.92 12.8V12.8" stroke="#D54561" stroke-width="0.96" stroke-linecap="round"/>
</g>
</g>
</svg>
