<svg xmlns="http://www.w3.org/2000/svg" width="24" height="24" viewBox="0 0 24 24" fill="none">   <path d="M11 12C11 12.5519 11.4481 13 12 13C12.5519 13 13 12.5519 13 12C13 11.4481 12.5519 11 12 11C11.4481 11 11 11.4481 11 12V12" stroke="#94A3B8" stroke-width="2" stroke-linecap="round" stroke-linejoin="round"/>   <path d="M20.1994 20.2004C22.2394 18.1704 20.2194 12.8404 15.6994 8.30037C11.1594 3.78037 5.8294 1.76037 3.7994 3.80037C1.7594 5.83037 3.7794 11.1604 8.2994 15.7004C12.8394 20.2204 18.1694 22.2404 20.1994 20.2004" stroke="#94A3B8" stroke-width="2" stroke-linecap="round" stroke-linejoin="round"/>   <path d="M15.6994 15.7004C20.2194 11.1604 22.2394 5.83037 20.1994 3.80037C18.1694 1.76037 12.8394 3.78037 8.2994 8.30037C3.7794 12.8404 1.7594 18.1704 3.7994 20.2004C5.8294 22.2404 11.1594 20.2204 15.6994 15.7004" stroke="#94A3B8" stroke-width="2" stroke-linecap="round" stroke-linejoin="round"/> </svg>