<svg width="145" height="145" viewBox="0 0 145 145" fill="none" xmlns="http://www.w3.org/2000/svg">
<path d="M144.827 12.0696C111.503 12.0696 84.4835 39.0888 84.4835 72.4134C84.4835 105.738 111.503 132.757 144.827 132.757V144.827C104.837 144.827 72.4141 112.404 72.4141 72.4134C72.4141 32.4232 104.837 0.000152588 144.827 0.000152588V12.0696Z" fill="#073AA8"/>
<path d="M0 60.3446C33.3246 60.3446 60.3456 33.3254 60.3456 0.000808716H72.4133C72.4133 39.991 39.9902 72.4141 0 72.4141L0 60.3446Z" fill="#D54561"/>
<path d="M36.2066 18.1042C36.2066 8.10602 28.1015 0.000892639 18.1033 0.000892639C8.10513 0.000892639 0 8.10602 0 18.1042C0 28.1024 8.10513 36.2075 18.1033 36.2075C28.1015 36.2075 36.2066 28.1024 36.2066 18.1042Z" fill="#073AA8"/>
<path d="M144.825 72.4122C144.825 59.0816 134.019 48.275 120.688 48.275C107.357 48.275 96.5508 59.0816 96.5508 72.4122C96.5508 85.7427 107.357 96.5493 120.688 96.5493C134.019 96.5493 144.825 85.7427 144.825 72.4122Z" fill="#D54561"/>
<path d="M60.3456 114.654C60.3456 97.9899 46.8368 84.4811 30.1728 84.4811C13.5088 84.4811 0 97.9899 0 114.654C0 131.318 13.5088 144.827 30.1728 144.827C46.8368 144.827 60.3456 131.318 60.3456 114.654Z" fill="#073AA8"/>
</svg>
