<svg width="129" height="155" viewBox="0 0 129 155" fill="none" xmlns="http://www.w3.org/2000/svg">
<path d="M0 64.3911C0 114.187 40.3642 154.559 90.1605 154.559V141.678C47.476 141.678 12.879 107.076 12.879 64.3911H0Z" fill="#D54561"/>
<path d="M90.1585 12.8809C61.7015 12.8809 38.6387 35.9495 38.6387 64.3968C38.6387 92.8538 61.7015 115.922 90.1585 115.922V128.803C54.5877 128.803 25.7578 99.9656 25.7578 64.3949C25.7578 28.8299 54.5877 0 90.1585 0V12.8809Z" fill="#073AA8"/>
<path d="M90.1564 64.4064V103.047C68.8112 103.047 51.5156 85.7458 51.5156 64.4006C51.5156 43.0612 68.8112 25.7656 90.1564 25.7656C111.504 25.7656 128.797 43.0612 128.797 64.4006L90.1564 64.4064Z" fill="#073AA8"/>
</svg>
